<svg width="1440" height="637" viewBox="0 0 1440 637" fill="none" xmlns="http://www.w3.org/2000/svg">
<path d="M861 113.5C1154.5 113.5 1127.5 12 1493 12V636.5H-60V38.5C64.5 38.5 104 12 233.5 12C395 12 567.5 113.5 861 113.5Z" fill="url(#paint0_radial)" fill-opacity="0.8"/>
<path d="M1489 12C1123.5 12 1150.5 113.5 857 113.5C563.5 113.5 391 12 229.5 12C100 12 60.5 38.5 -64 38.5" stroke="url(#paint1_radial)" stroke-width="2"/>
<rect x="229" y="12.1426" width="16" height="16" transform="rotate(-45 229 12.1426)" fill="#2B366B"/>
<rect x="819" y="112.484" width="12" height="12" transform="rotate(-45 819 112.484)" fill="#2B366B"/>
<defs>
<radialGradient id="paint0_radial" cx="0" cy="0" r="1" gradientUnits="userSpaceOnUse" gradientTransform="translate(716.5 59.7595) rotate(90) scale(239.402 595.342)">
<stop stop-color="#1C2F54" stop-opacity="0.45"/>
<stop offset="1" stop-color="#0F0C1D"/>
</radialGradient>
<radialGradient id="paint1_radial" cx="0" cy="0" r="1" gradientUnits="userSpaceOnUse" gradientTransform="translate(727 113.498) scale(703.5 27073.3)">
<stop stop-color="#273264"/>
<stop offset="1" stop-color="#0F0C1D"/>
</radialGradient>
</defs>
</svg>
