<svg width="406" height="148" viewBox="0 0 406 148" fill="none" xmlns="http://www.w3.org/2000/svg">
    <path
        d="M38.38 56H51.68L33.592 2.8H18.088L0 56H13.3L15.96 47.64H35.72L38.38 56ZM19.608 36.24L25.84 16.708L32.072 36.24H19.608ZM67.2363 24.764V18H55.8363V56H67.2363V38.824C67.2363 31.3 73.9243 29.4 78.6363 30.16V17.24C73.8483 17.24 68.7563 19.672 67.2363 24.764ZM107.346 28.944V18H99.5184V7.36L88.1184 10.78V18H82.0384V28.944H88.1184V42.396C88.1184 53.036 92.4504 57.52 107.346 56V45.664C102.33 45.968 99.5184 45.664 99.5184 42.396V28.944H107.346ZM119.501 14.656C123.225 14.656 126.341 11.54 126.341 7.816C126.341 4.092 123.225 0.975997 119.501 0.975997C115.777 0.975997 112.661 4.092 112.661 7.816C112.661 11.54 115.777 14.656 119.501 14.656ZM113.801 56H125.201V18H113.801V56ZM143.964 29.096C143.964 27.728 145.18 26.968 147.156 26.968C149.664 26.968 151.184 28.336 152.248 30.312L161.976 25.068C158.784 19.672 153.312 16.936 147.156 16.936C139.252 16.936 132.26 21.116 132.26 29.4C132.26 42.548 150.956 40.344 150.956 44.524C150.956 46.044 149.588 46.88 146.852 46.88C143.508 46.88 141.38 45.284 140.392 42.396L130.512 48.02C133.476 54.176 139.252 57.064 146.852 57.064C155.06 57.064 162.66 53.34 162.66 44.6C162.66 30.54 143.964 33.428 143.964 29.096ZM189.507 28.944V18H181.679V7.36L170.279 10.78V18H164.199V28.944H170.279V42.396C170.279 53.036 174.611 57.52 189.507 56V45.664C184.491 45.968 181.679 45.664 181.679 42.396V28.944H189.507ZM208.103 24.764V18H196.703V56H208.103V38.824C208.103 31.3 214.791 29.4 219.503 30.16V17.24C214.715 17.24 209.623 19.672 208.103 24.764ZM249.515 18L242.371 41.256L233.935 18H221.395L236.519 54.252C234.847 58.888 232.339 60.56 227.019 60.56V71.2C237.659 71.732 244.423 66.944 248.679 54.86L261.675 18H249.515ZM31.768 78.8V97.572C29.26 94.684 25.536 92.936 20.444 92.936C10.488 92.936 2.28 101.676 2.28 113C2.28 124.324 10.488 133.064 20.444 133.064C25.536 133.064 29.26 131.316 31.768 128.428V132H43.168V78.8H31.768ZM22.724 122.272C17.48 122.272 13.68 118.7 13.68 113C13.68 107.3 17.48 103.728 22.724 103.728C27.968 103.728 31.768 107.3 31.768 113C31.768 118.7 27.968 122.272 22.724 122.272ZM69.7716 133.064C80.9436 133.064 89.9116 124.324 89.9116 113C89.9116 101.676 80.9436 92.936 69.7716 92.936C58.5996 92.936 49.6316 101.676 49.6316 113C49.6316 124.324 58.5996 133.064 69.7716 133.064ZM69.7716 121.968C64.8316 121.968 61.0316 118.396 61.0316 113C61.0316 107.604 64.8316 104.032 69.7716 104.032C74.7116 104.032 78.5116 107.604 78.5116 113C78.5116 118.396 74.7116 121.968 69.7716 121.968ZM118.628 92.936C113.612 92.936 109.812 94.76 107.76 97.572V94H96.3597V132H107.76V111.252C107.76 105.856 110.648 103.424 114.828 103.424C118.476 103.424 121.44 105.628 121.44 110.34V132H132.84V108.668C132.84 98.408 126.304 92.936 118.628 92.936ZM150.852 117.56H177.832C178.136 116.116 178.288 114.596 178.288 113C178.288 101.524 170.08 92.936 158.984 92.936C146.976 92.936 138.768 101.676 138.768 113C138.768 124.324 146.824 133.064 159.82 133.064C167.04 133.064 172.664 130.404 176.388 125.236L167.268 119.992C165.748 121.664 163.088 122.88 159.972 122.88C155.792 122.88 152.296 121.512 150.852 117.56ZM150.624 109.048C151.688 105.172 154.576 103.044 158.908 103.044C162.328 103.044 165.748 104.64 166.964 109.048H150.624ZM213.938 117.56H240.918C241.222 116.116 241.374 114.596 241.374 113C241.374 101.524 233.166 92.936 222.07 92.936C210.062 92.936 201.854 101.676 201.854 113C201.854 124.324 209.91 133.064 222.906 133.064C230.126 133.064 235.75 130.404 239.474 125.236L230.354 119.992C228.834 121.664 226.174 122.88 223.058 122.88C218.878 122.88 215.382 121.512 213.938 117.56ZM213.71 109.048C214.774 105.172 217.662 103.044 221.994 103.044C225.414 103.044 228.834 104.64 230.05 109.048H213.71ZM275.057 94V97.572C272.549 94.684 268.825 92.936 263.733 92.936C253.777 92.936 245.569 101.676 245.569 113C245.569 124.324 253.777 133.064 263.733 133.064C268.825 133.064 272.549 131.316 275.057 128.428V132H286.457V94H275.057ZM266.013 122.272C260.769 122.272 256.969 118.7 256.969 113C256.969 107.3 260.769 103.728 266.013 103.728C271.257 103.728 275.057 107.3 275.057 113C275.057 118.7 271.257 122.272 266.013 122.272ZM305.242 105.096C305.242 103.728 306.458 102.968 308.434 102.968C310.942 102.968 312.462 104.336 313.526 106.312L323.254 101.068C320.062 95.672 314.59 92.936 308.434 92.936C300.53 92.936 293.538 97.116 293.538 105.4C293.538 118.548 312.234 116.344 312.234 120.524C312.234 122.044 310.866 122.88 308.13 122.88C304.786 122.88 302.658 121.284 301.67 118.396L291.79 124.02C294.754 130.176 300.53 133.064 308.13 133.064C316.338 133.064 323.938 129.34 323.938 120.6C323.938 106.54 305.242 109.428 305.242 105.096ZM335.329 90.656C339.053 90.656 342.169 87.54 342.169 83.816C342.169 80.092 339.053 76.976 335.329 76.976C331.605 76.976 328.489 80.092 328.489 83.816C328.489 87.54 331.605 90.656 335.329 90.656ZM329.629 132H341.029V94H329.629V132ZM349.371 132H360.771V76.52H349.371V132ZM393.054 94L385.91 117.256L377.474 94H364.934L380.058 130.252C378.386 134.888 375.878 136.56 370.558 136.56V147.2C381.198 147.732 387.962 142.944 392.218 130.86L405.214 94H393.054Z"
        fill="white" />
</svg>